<mxfile host="app.diagrams.net" modified="2021-01-08T12:16:07.740Z" agent="5.0 (X11)" etag="EgrsZXTJLnsPTDtKD7Pk" version="13.10.1" type="github">
  <diagram id="NJh6ipp72pvmYPQ2gzH8" name="Page-1">
    <mxGraphModel dx="1952" dy="574" grid="1" gridSize="10" guides="1" tooltips="1" connect="1" arrows="1" fold="1" page="1" pageScale="1" pageWidth="850" pageHeight="1100" math="0" shadow="0">
      <root>
        <mxCell id="0" />
        <mxCell id="1" parent="0" />
        <mxCell id="c-CXGmJsvcIxv0-BUD2P-27" value="" style="shape=ext;double=1;rounded=0;whiteSpace=wrap;html=1;" vertex="1" parent="1">
          <mxGeometry x="60" y="40" width="740" height="240" as="geometry" />
        </mxCell>
        <mxCell id="c-CXGmJsvcIxv0-BUD2P-3" value="poi1" style="rhombus;whiteSpace=wrap;html=1;" vertex="1" parent="1">
          <mxGeometry x="120" y="180" width="80" height="80" as="geometry" />
        </mxCell>
        <mxCell id="c-CXGmJsvcIxv0-BUD2P-4" value="poi3" style="rhombus;whiteSpace=wrap;html=1;" vertex="1" parent="1">
          <mxGeometry x="640" y="180" width="80" height="80" as="geometry" />
        </mxCell>
        <mxCell id="c-CXGmJsvcIxv0-BUD2P-5" value="poi2" style="rhombus;whiteSpace=wrap;html=1;" vertex="1" parent="1">
          <mxGeometry x="420" y="180" width="80" height="80" as="geometry" />
        </mxCell>
        <mxCell id="c-CXGmJsvcIxv0-BUD2P-6" value="poi2b" style="rhombus;whiteSpace=wrap;html=1;" vertex="1" parent="1">
          <mxGeometry x="420" y="300" width="80" height="80" as="geometry" />
        </mxCell>
        <mxCell id="c-CXGmJsvcIxv0-BUD2P-7" value="poi2a" style="rhombus;whiteSpace=wrap;html=1;" vertex="1" parent="1">
          <mxGeometry x="300" y="300" width="80" height="80" as="geometry" />
        </mxCell>
        <mxCell id="c-CXGmJsvcIxv0-BUD2P-8" value="poi1b" style="rhombus;whiteSpace=wrap;html=1;" vertex="1" parent="1">
          <mxGeometry x="190" y="310" width="80" height="80" as="geometry" />
        </mxCell>
        <mxCell id="c-CXGmJsvcIxv0-BUD2P-9" value="poi1a" style="rhombus;whiteSpace=wrap;html=1;" vertex="1" parent="1">
          <mxGeometry x="70" y="310" width="80" height="80" as="geometry" />
        </mxCell>
        <mxCell id="c-CXGmJsvcIxv0-BUD2P-10" value="poi2c" style="rhombus;whiteSpace=wrap;html=1;" vertex="1" parent="1">
          <mxGeometry x="540" y="300" width="80" height="80" as="geometry" />
        </mxCell>
        <mxCell id="c-CXGmJsvcIxv0-BUD2P-11" value="" style="endArrow=classic;html=1;entryX=0.5;entryY=1;entryDx=0;entryDy=0;exitX=0.5;exitY=0;exitDx=0;exitDy=0;" edge="1" parent="1" source="c-CXGmJsvcIxv0-BUD2P-9" target="c-CXGmJsvcIxv0-BUD2P-3">
          <mxGeometry width="50" height="50" relative="1" as="geometry">
            <mxPoint x="440" y="320" as="sourcePoint" />
            <mxPoint x="490" y="270" as="targetPoint" />
          </mxGeometry>
        </mxCell>
        <mxCell id="c-CXGmJsvcIxv0-BUD2P-12" value="" style="endArrow=classic;html=1;exitX=0.5;exitY=0;exitDx=0;exitDy=0;entryX=0.5;entryY=1;entryDx=0;entryDy=0;" edge="1" parent="1" source="c-CXGmJsvcIxv0-BUD2P-8" target="c-CXGmJsvcIxv0-BUD2P-3">
          <mxGeometry width="50" height="50" relative="1" as="geometry">
            <mxPoint x="440" y="320" as="sourcePoint" />
            <mxPoint x="490" y="270" as="targetPoint" />
          </mxGeometry>
        </mxCell>
        <mxCell id="c-CXGmJsvcIxv0-BUD2P-13" value="" style="endArrow=classic;html=1;entryX=0.5;entryY=1;entryDx=0;entryDy=0;exitX=0.5;exitY=0;exitDx=0;exitDy=0;" edge="1" parent="1" source="c-CXGmJsvcIxv0-BUD2P-7" target="c-CXGmJsvcIxv0-BUD2P-5">
          <mxGeometry width="50" height="50" relative="1" as="geometry">
            <mxPoint x="380" y="320" as="sourcePoint" />
            <mxPoint x="430" y="270" as="targetPoint" />
          </mxGeometry>
        </mxCell>
        <mxCell id="c-CXGmJsvcIxv0-BUD2P-14" value="" style="endArrow=classic;html=1;exitX=0.5;exitY=0;exitDx=0;exitDy=0;entryX=0.5;entryY=1;entryDx=0;entryDy=0;" edge="1" parent="1" source="c-CXGmJsvcIxv0-BUD2P-6" target="c-CXGmJsvcIxv0-BUD2P-5">
          <mxGeometry width="50" height="50" relative="1" as="geometry">
            <mxPoint x="380" y="320" as="sourcePoint" />
            <mxPoint x="430" y="270" as="targetPoint" />
          </mxGeometry>
        </mxCell>
        <mxCell id="c-CXGmJsvcIxv0-BUD2P-15" value="" style="endArrow=classic;html=1;exitX=0.5;exitY=0;exitDx=0;exitDy=0;entryX=0.5;entryY=1;entryDx=0;entryDy=0;" edge="1" parent="1" source="c-CXGmJsvcIxv0-BUD2P-10" target="c-CXGmJsvcIxv0-BUD2P-5">
          <mxGeometry width="50" height="50" relative="1" as="geometry">
            <mxPoint x="380" y="320" as="sourcePoint" />
            <mxPoint x="430" y="270" as="targetPoint" />
          </mxGeometry>
        </mxCell>
        <mxCell id="c-CXGmJsvcIxv0-BUD2P-16" value="10000" style="text;strokeColor=none;fillColor=none;html=1;fontSize=24;fontStyle=1;verticalAlign=middle;align=center;" vertex="1" parent="1">
          <mxGeometry x="400" y="80" width="100" height="40" as="geometry" />
        </mxCell>
        <mxCell id="c-CXGmJsvcIxv0-BUD2P-17" value="12000" style="text;strokeColor=none;fillColor=none;html=1;fontSize=24;fontStyle=1;verticalAlign=middle;align=center;" vertex="1" parent="1">
          <mxGeometry x="110" y="80" width="100" height="40" as="geometry" />
        </mxCell>
        <mxCell id="c-CXGmJsvcIxv0-BUD2P-18" value="8000" style="text;strokeColor=none;fillColor=none;html=1;fontSize=24;fontStyle=1;verticalAlign=middle;align=center;" vertex="1" parent="1">
          <mxGeometry x="620" y="80" width="100" height="40" as="geometry" />
        </mxCell>
        <mxCell id="c-CXGmJsvcIxv0-BUD2P-19" value="4000" style="text;strokeColor=none;fillColor=none;html=1;fontSize=24;fontStyle=0;verticalAlign=middle;align=center;" vertex="1" parent="1">
          <mxGeometry x="60" y="350" width="100" height="40" as="geometry" />
        </mxCell>
        <mxCell id="c-CXGmJsvcIxv0-BUD2P-20" value="6000" style="text;strokeColor=none;fillColor=none;html=1;fontSize=24;fontStyle=0;verticalAlign=middle;align=center;" vertex="1" parent="1">
          <mxGeometry x="180" y="350" width="100" height="40" as="geometry" />
        </mxCell>
        <mxCell id="c-CXGmJsvcIxv0-BUD2P-21" value="2000" style="text;strokeColor=none;fillColor=none;html=1;fontSize=24;fontStyle=0;verticalAlign=middle;align=center;" vertex="1" parent="1">
          <mxGeometry x="110" y="230" width="100" height="40" as="geometry" />
        </mxCell>
        <mxCell id="c-CXGmJsvcIxv0-BUD2P-22" value="3000" style="text;strokeColor=none;fillColor=none;html=1;fontSize=24;fontStyle=0;verticalAlign=middle;align=center;" vertex="1" parent="1">
          <mxGeometry x="290" y="340" width="100" height="40" as="geometry" />
        </mxCell>
        <mxCell id="c-CXGmJsvcIxv0-BUD2P-23" value="6000" style="text;strokeColor=none;fillColor=none;html=1;fontSize=24;fontStyle=0;verticalAlign=middle;align=center;" vertex="1" parent="1">
          <mxGeometry x="410" y="340" width="100" height="40" as="geometry" />
        </mxCell>
        <mxCell id="c-CXGmJsvcIxv0-BUD2P-24" value="1000" style="text;strokeColor=none;fillColor=none;html=1;fontSize=24;fontStyle=0;verticalAlign=middle;align=center;" vertex="1" parent="1">
          <mxGeometry x="530" y="340" width="100" height="40" as="geometry" />
        </mxCell>
        <mxCell id="c-CXGmJsvcIxv0-BUD2P-25" value="0" style="text;strokeColor=none;fillColor=none;html=1;fontSize=24;fontStyle=0;verticalAlign=middle;align=center;" vertex="1" parent="1">
          <mxGeometry x="410" y="220" width="100" height="40" as="geometry" />
        </mxCell>
        <mxCell id="c-CXGmJsvcIxv0-BUD2P-26" value="8000" style="text;strokeColor=none;fillColor=none;html=1;fontSize=24;fontStyle=0;verticalAlign=middle;align=center;" vertex="1" parent="1">
          <mxGeometry x="630" y="220" width="100" height="40" as="geometry" />
        </mxCell>
        <mxCell id="c-CXGmJsvcIxv0-BUD2P-29" value="POI (name to display)" style="text;strokeColor=none;fillColor=none;html=1;fontSize=24;fontStyle=1;verticalAlign=middle;align=center;" vertex="1" parent="1">
          <mxGeometry x="70" y="140" width="100" height="40" as="geometry" />
        </mxCell>
        <mxCell id="c-CXGmJsvcIxv0-BUD2P-31" value="Total (amount to display)" style="text;strokeColor=none;fillColor=none;html=1;fontSize=24;fontStyle=1;verticalAlign=middle;align=center;" vertex="1" parent="1">
          <mxGeometry x="90" y="50" width="100" height="40" as="geometry" />
        </mxCell>
        <mxCell id="c-CXGmJsvcIxv0-BUD2P-33" value="" style="ellipse;whiteSpace=wrap;html=1;fillColor=none;strokeColor=#FF0000;" vertex="1" parent="1">
          <mxGeometry x="360" y="20" width="200" height="250" as="geometry" />
        </mxCell>
        <mxCell id="c-CXGmJsvcIxv0-BUD2P-34" value="currently missing" style="text;html=1;align=center;verticalAlign=middle;whiteSpace=wrap;rounded=0;fontColor=#FF0000;" vertex="1" parent="1">
          <mxGeometry x="400" y="20" width="110" height="20" as="geometry" />
        </mxCell>
      </root>
    </mxGraphModel>
  </diagram>
</mxfile>
